<svg width="276" height="52" viewBox="0 0 246 52" fill="none" xmlns="http://www.w3.org/2000/svg">
<path d="M1.896 50V2.4H12.504V50H1.896ZM52.2707 50L32.4827 15.796V50H22.2827V2.4H34.9987L54.8547 36.332V2.4H64.9867V50H52.2707ZM92.1485 50.68C89.4738 50.68 86.9351 50.3627 84.5325 49.728C82.1751 49.0933 80.0898 48.1187 78.2765 46.804C76.5085 45.4893 75.0578 43.8347 73.9245 41.84C72.7911 39.8453 72.1111 37.488 71.8845 34.768H82.2205C82.5378 37.4427 83.6258 39.4147 85.4845 40.684C87.3885 41.9533 89.6098 42.588 92.1485 42.588C94.5965 42.588 96.6818 42.0893 98.4045 41.092C100.172 40.0493 101.056 38.6667 101.056 36.944C101.056 35.2667 100.376 33.9747 99.0165 33.068C97.6565 32.116 95.6391 31.3453 92.9645 30.756L88.1365 29.668C83.1498 28.58 79.4778 26.948 77.1205 24.772C74.8085 22.5507 73.6525 19.6267 73.6525 16C73.6525 13.8693 74.1285 11.8973 75.0805 10.084C76.0778 8.27066 77.4151 6.72933 79.0925 5.46C80.7698 4.19066 82.7418 3.19333 85.0085 2.468C87.2751 1.74266 89.6778 1.38 92.2165 1.38C94.8005 1.38 97.2031 1.72 99.4245 2.4C101.691 3.03466 103.64 3.98666 105.272 5.256C106.95 6.48 108.287 8.02133 109.284 9.88C110.282 11.6933 110.871 13.756 111.052 16.068H100.852C100.626 13.9827 99.7191 12.3733 98.1325 11.24C96.5458 10.0613 94.5738 9.472 92.2165 9.472C89.9951 9.472 88.0685 10.016 86.4365 11.104C84.8045 12.192 83.9885 13.552 83.9885 15.184C83.9885 16.5893 84.5325 17.6773 85.6205 18.448C86.7538 19.2187 88.5218 19.876 90.9245 20.42L96.3645 21.644C100.943 22.6413 104.638 24.228 107.448 26.404C110.259 28.5347 111.664 31.64 111.664 35.72C111.664 38.168 111.12 40.344 110.032 42.248C108.944 44.1067 107.494 45.6707 105.68 46.94C103.912 48.164 101.85 49.0933 99.4925 49.728C97.1351 50.3627 94.6871 50.68 92.1485 50.68ZM118.97 50V2.4H129.578V50H118.97ZM139.357 50V2.4H157.173C160.936 2.4 164.381 2.876 167.509 3.828C170.637 4.78 173.289 6.23066 175.465 8.18C177.686 10.1293 179.386 12.5773 180.565 15.524C181.789 18.4707 182.401 21.9387 182.401 25.928C182.401 29.736 181.789 33.136 180.565 36.128C179.341 39.12 177.618 41.636 175.397 43.676C173.221 45.716 170.569 47.28 167.441 48.368C164.313 49.456 160.868 50 157.105 50H139.357ZM149.897 41.364H156.153C161.23 41.364 165.038 40.004 167.577 37.284C170.161 34.5187 171.453 30.756 171.453 25.996C171.453 21.1907 170.161 17.496 167.577 14.912C165.038 12.328 161.23 11.036 156.153 11.036H149.897V41.364ZM224.982 41.5V50H189.826V2.4H224.506V10.9H200.162V21.236H222.602V29.6H200.162V41.5H224.982Z" fill="#F2F2F2"/>
<path d="M1.896 50H0.896V51H1.896V50ZM1.896 2.4V1.4H0.896V2.4H1.896ZM12.504 2.4H13.504V1.4H12.504V2.4ZM12.504 50V51H13.504V50H12.504ZM2.896 50V2.4H0.896V50H2.896ZM1.896 3.4H12.504V1.4H1.896V3.4ZM11.504 2.4V50H13.504V2.4H11.504ZM12.504 49H1.896V51H12.504V49ZM52.2707 50L51.4051 50.5008L51.694 51H52.2707V50ZM32.4827 15.796L33.3483 15.2952L31.4827 12.0705V15.796H32.4827ZM32.4827 50V51H33.4827V50H32.4827ZM22.2827 50H21.2827V51H22.2827V50ZM22.2827 2.4V1.4H21.2827V2.4H22.2827ZM34.9987 2.4L35.8618 1.89494L35.5722 1.4H34.9987V2.4ZM54.8547 36.332L53.9916 36.8371L55.8547 40.0209V36.332H54.8547ZM54.8547 2.4V1.4H53.8547V2.4H54.8547ZM64.9867 2.4H65.9867V1.4H64.9867V2.4ZM64.9867 50V51H65.9867V50H64.9867ZM53.1363 49.4992L33.3483 15.2952L31.6171 16.2968L51.4051 50.5008L53.1363 49.4992ZM31.4827 15.796V50H33.4827V15.796H31.4827ZM32.4827 49H22.2827V51H32.4827V49ZM23.2827 50V2.4H21.2827V50H23.2827ZM22.2827 3.4H34.9987V1.4H22.2827V3.4ZM34.1356 2.90505L53.9916 36.8371L55.7178 35.8269L35.8618 1.89494L34.1356 2.90505ZM55.8547 36.332V2.4H53.8547V36.332H55.8547ZM54.8547 3.4H64.9867V1.4H54.8547V3.4ZM63.9867 2.4V50H65.9867V2.4H63.9867ZM64.9867 49H52.2707V51H64.9867V49ZM84.5325 49.728L84.2725 50.6936L84.2771 50.6948L84.5325 49.728ZM78.2765 46.804L77.6797 47.6065L77.6895 47.6136L78.2765 46.804ZM71.8845 34.768V33.768H70.7977L70.8879 34.851L71.8845 34.768ZM82.2205 34.768L83.2135 34.6502L83.1088 33.768H82.2205V34.768ZM85.4845 40.684L84.9205 41.5099L84.9298 41.516L85.4845 40.684ZM98.4045 41.092L98.9055 41.9575L98.9125 41.9534L98.4045 41.092ZM99.0165 33.068L98.443 33.8872L98.4523 33.8937L98.4618 33.9001L99.0165 33.068ZM92.9645 30.756L92.7446 31.7315L92.7493 31.7326L92.9645 30.756ZM88.1365 29.668L88.3563 28.6924L88.3496 28.691L88.1365 29.668ZM77.1205 24.772L76.4276 25.4931L76.4348 25.5L76.4422 25.5068L77.1205 24.772ZM75.0805 10.084L74.2043 9.60208L74.1996 9.61058L74.1951 9.61917L75.0805 10.084ZM85.0085 2.468L84.7037 1.51557L85.0085 2.468ZM99.4245 2.4L99.1318 3.3562L99.1433 3.35972L99.1548 3.36296L99.4245 2.4ZM105.272 5.256L104.659 6.04535L104.671 6.05476L104.683 6.06379L105.272 5.256ZM109.284 9.88L108.403 10.3528L108.408 10.3619L109.284 9.88ZM111.052 16.068V17.068H112.134L112.049 15.9898L111.052 16.068ZM100.852 16.068L99.8583 16.1761L99.9553 17.068H100.852V16.068ZM98.1325 11.24L97.5361 12.0427L97.5436 12.0483L97.5512 12.0537L98.1325 11.24ZM86.4365 11.104L85.8818 10.2719L86.4365 11.104ZM85.6205 18.448L85.0424 19.264L85.0503 19.2696L85.0582 19.2749L85.6205 18.448ZM90.9245 20.42L90.7036 21.3953L90.705 21.3956L90.9245 20.42ZM96.3645 21.644L96.145 22.6196L96.1516 22.6211L96.3645 21.644ZM107.448 26.404L106.836 27.1948L106.844 27.2009L107.448 26.404ZM110.032 42.248L110.896 42.7532L110.901 42.7441L110.032 42.248ZM105.68 46.94L106.25 47.7622L106.254 47.7592L105.68 46.94ZM99.4925 49.728L99.2325 48.7624L99.4925 49.728ZM92.1485 49.68C89.5535 49.68 87.1011 49.3722 84.7879 48.7612L84.2771 50.6948C86.7692 51.3531 89.3941 51.68 92.1485 51.68V49.68ZM84.7924 48.7624C82.5421 48.1565 80.5697 47.2314 78.8634 45.9944L77.6895 47.6136C79.6099 49.0059 81.8082 50.0301 84.2725 50.6936L84.7924 48.7624ZM78.8732 46.0015C77.2211 44.7731 75.8616 43.2251 74.7939 41.346L73.055 42.334C74.254 44.4442 75.7958 46.2056 77.6798 47.6065L78.8732 46.0015ZM74.7939 41.346C73.7446 39.4991 73.0979 37.2875 72.881 34.685L70.8879 34.851C71.1244 37.6885 71.8377 40.1915 73.055 42.334L74.7939 41.346ZM71.8845 35.768H82.2205V33.768H71.8845V35.768ZM81.2274 34.8858C81.5715 37.7856 82.7763 40.0454 84.9205 41.5098L86.0484 39.8582C84.4753 38.7839 83.5041 37.0998 83.2135 34.6502L81.2274 34.8858ZM84.9298 41.516C87.0158 42.9067 89.4348 43.588 92.1485 43.588V41.588C89.7848 41.588 87.7612 41 86.0392 39.8519L84.9298 41.516ZM92.1485 43.588C94.7322 43.588 96.9992 43.0611 98.9055 41.9574L97.9034 40.2266C96.3644 41.1176 94.4607 41.588 92.1485 41.588V43.588ZM98.9125 41.9534C100.917 40.7715 102.056 39.0938 102.056 36.944H100.056C100.056 38.2395 99.4284 39.3272 97.8965 40.2306L98.9125 41.9534ZM102.056 36.944C102.056 34.9428 101.218 33.3338 99.5712 32.236L98.4618 33.9001C99.5349 34.6155 100.056 35.5905 100.056 36.944H102.056ZM99.5899 32.2488C98.0743 31.1878 95.9101 30.3811 93.1796 29.7794L92.7493 31.7326C95.3682 32.3096 97.2387 33.0442 98.443 33.8872L99.5899 32.2488ZM93.1843 29.7805L88.3563 28.6925L87.9166 30.6435L92.7446 31.7315L93.1843 29.7805ZM88.3496 28.691C83.4438 27.6206 79.9697 26.0412 77.7988 24.0372L76.4422 25.5068C78.9859 27.8548 82.8558 29.5394 87.9233 30.645L88.3496 28.691ZM77.8133 24.0509C75.7241 22.0436 74.6525 19.3937 74.6525 16H72.6525C72.6525 19.8597 73.8929 23.0577 76.4276 25.4931L77.8133 24.0509ZM74.6525 16C74.6525 14.0245 75.0922 12.2129 75.9659 10.5488L74.1951 9.61917C73.1647 11.5817 72.6525 13.7142 72.6525 16H74.6525ZM75.9567 10.5659C76.8851 8.87781 78.1288 7.44335 79.6959 6.2574L78.489 4.66259C76.7015 6.01531 75.2705 7.66352 74.2043 9.60208L75.9567 10.5659ZM79.6959 6.2574C81.2722 5.06457 83.1402 4.1158 85.3132 3.42042L84.7037 1.51557C82.3434 2.27087 80.2674 3.31676 78.489 4.66259L79.6959 6.2574ZM85.3132 3.42042C87.475 2.72865 89.7743 2.38 92.2165 2.38V0.379997C89.5813 0.379997 87.0753 0.756674 84.7037 1.51557L85.3132 3.42042ZM92.2165 2.38C94.7123 2.38 97.0153 2.70829 99.1318 3.3562L99.7172 1.4438C97.391 0.731703 94.8887 0.379997 92.2165 0.379997V2.38ZM99.1548 3.36296C101.314 3.96745 103.142 4.86595 104.659 6.04535L105.886 4.46664C104.139 3.10738 102.069 2.10187 99.6941 1.43703L99.1548 3.36296ZM104.683 6.06379C106.237 7.19797 107.476 8.6241 108.403 10.3528L110.166 9.40718C109.099 7.41857 107.662 5.76202 105.862 4.44821L104.683 6.06379ZM108.408 10.3619C109.329 12.0365 109.884 13.9587 110.056 16.1462L112.049 15.9898C111.858 13.5533 111.234 11.3501 110.161 9.39808L108.408 10.3619ZM111.052 15.068H100.852V17.068H111.052V15.068ZM101.847 15.9599C101.592 13.6155 100.551 11.7389 98.7137 10.4263L97.5512 12.0537C98.8869 13.0078 99.6598 14.3499 99.8583 16.1761L101.847 15.9599ZM98.7288 10.4373C96.9384 9.10723 94.746 8.472 92.2165 8.472V10.472C94.4016 10.472 96.1532 11.0154 97.5361 12.0427L98.7288 10.4373ZM92.2165 8.472C89.8247 8.472 87.6992 9.06035 85.8818 10.2719L86.9912 11.936C88.4378 10.9716 90.1655 10.472 92.2165 10.472V8.472ZM85.8818 10.2719C84.0361 11.5024 82.9885 13.1469 82.9885 15.184H84.9885C84.9885 13.9571 85.5729 12.8816 86.9912 11.936L85.8818 10.2719ZM82.9885 15.184C82.9885 16.893 83.6733 18.2942 85.0424 19.264L86.1985 17.632C85.3916 17.0604 84.9885 16.2857 84.9885 15.184H82.9885ZM85.0582 19.2749C86.3469 20.1513 88.2604 20.8421 90.7036 21.3953L91.1453 19.4447C88.7832 18.9099 87.1607 18.286 86.1828 17.6211L85.0582 19.2749ZM90.705 21.3956L96.145 22.6196L96.584 20.6684L91.144 19.4444L90.705 21.3956ZM96.1516 22.6211C100.629 23.5964 104.174 25.1339 106.836 27.1947L108.061 25.6133C105.101 23.3221 101.257 21.6863 96.5773 20.6669L96.1516 22.6211ZM106.844 27.2009C109.364 29.1112 110.664 31.8973 110.664 35.72H112.664C112.664 31.3827 111.154 27.9581 108.053 25.6071L106.844 27.2009ZM110.664 35.72C110.664 38.0147 110.156 40.016 109.164 41.7519L110.901 42.7441C112.085 40.672 112.664 38.3213 112.664 35.72H110.664ZM109.169 41.7428C108.156 43.4737 106.806 44.9317 105.107 46.1208L106.254 47.7592C108.182 46.4096 109.733 44.7397 110.895 42.7532L109.169 41.7428ZM105.111 46.1178C103.449 47.2685 101.494 48.1535 99.2325 48.7624L99.7524 50.6936C102.206 50.0332 104.376 49.0595 106.25 47.7622L105.111 46.1178ZM99.2325 48.7624C96.9633 49.3733 94.6029 49.68 92.1485 49.68V51.68C94.7714 51.68 97.307 51.352 99.7524 50.6936L99.2325 48.7624ZM118.97 50H117.97V51H118.97V50ZM118.97 2.4V1.4H117.97V2.4H118.97ZM129.578 2.4H130.578V1.4H129.578V2.4ZM129.578 50V51H130.578V50H129.578ZM119.97 50V2.4H117.97V50H119.97ZM118.97 3.4H129.578V1.4H118.97V3.4ZM128.578 2.4V50H130.578V2.4H128.578ZM129.578 49H118.97V51H129.578V49ZM139.357 50H138.357V51H139.357V50ZM139.357 2.4V1.4H138.357V2.4H139.357ZM167.509 3.828L167.218 4.78467L167.509 3.828ZM175.465 8.18L174.798 8.92487L174.805 8.93163L175.465 8.18ZM180.565 15.524L179.636 15.8954L179.641 15.9076L180.565 15.524ZM175.397 43.676L174.721 42.9394L174.713 42.9465L175.397 43.676ZM149.897 41.364H148.897V42.364H149.897V41.364ZM167.577 37.284L166.846 36.6013L166.846 36.6017L167.577 37.284ZM167.577 14.912L166.864 15.6128L166.87 15.6191L167.577 14.912ZM149.897 11.036V10.036H148.897V11.036H149.897ZM140.357 50V2.4H138.357V50H140.357ZM139.357 3.4H157.173V1.4H139.357V3.4ZM157.173 3.4C160.852 3.4 164.197 3.86535 167.218 4.78467L167.8 2.87132C164.565 1.88665 161.02 1.4 157.173 1.4V3.4ZM167.218 4.78467C170.223 5.69936 172.742 7.08366 174.798 8.92484L176.132 7.43516C173.835 5.37767 171.051 3.86063 167.8 2.87132L167.218 4.78467ZM174.805 8.93163C176.9 10.7696 178.512 13.0838 179.636 15.8954L181.493 15.1526C180.261 12.0708 178.473 9.4891 176.125 7.42837L174.805 8.93163ZM179.641 15.9076C180.804 18.7064 181.401 22.0385 181.401 25.928H183.401C183.401 21.8388 182.774 18.2349 181.488 15.1404L179.641 15.9076ZM181.401 25.928C181.401 29.6289 180.806 32.8969 179.639 35.7494L181.49 36.5066C182.772 33.3751 183.401 29.8431 183.401 25.928H181.401ZM179.639 35.7494C178.467 38.6152 176.826 41.006 174.721 42.9395L176.073 44.4125C178.411 42.266 180.215 39.6248 181.49 36.5066L179.639 35.7494ZM174.713 42.9465C172.65 44.8806 170.123 46.3764 167.112 47.4235L167.769 49.3125C171.015 48.1836 173.792 46.5514 176.081 44.4055L174.713 42.9465ZM167.112 47.4235C164.103 48.4701 160.771 49 157.105 49V51C160.964 51 164.523 50.4419 167.769 49.3125L167.112 47.4235ZM157.105 49H139.357V51H157.105V49ZM149.897 42.364H156.153V40.364H149.897V42.364ZM156.153 42.364C161.403 42.364 165.519 40.9545 168.308 37.9663L166.846 36.6017C164.558 39.0535 161.058 40.364 156.153 40.364V42.364ZM168.308 37.9667C171.106 34.9718 172.453 30.9413 172.453 25.996H170.453C170.453 30.5707 169.216 34.0656 166.846 36.6013L168.308 37.9667ZM172.453 25.996C172.453 21.0122 171.109 17.0299 168.284 14.2049L166.87 15.6191C169.213 17.9621 170.453 21.3692 170.453 25.996H172.453ZM168.29 14.2112C165.499 11.3697 161.389 10.036 156.153 10.036V12.036C161.072 12.036 164.578 13.2863 166.864 15.6128L168.29 14.2112ZM156.153 10.036H149.897V12.036H156.153V10.036ZM148.897 11.036V41.364H150.897V11.036H148.897ZM224.982 41.5H225.982V40.5H224.982V41.5ZM224.982 50V51H225.982V50H224.982ZM189.826 50H188.826V51H189.826V50ZM189.826 2.4V1.4H188.826V2.4H189.826ZM224.506 2.4H225.506V1.4H224.506V2.4ZM224.506 10.9V11.9H225.506V10.9H224.506ZM200.162 10.9V9.9H199.162V10.9H200.162ZM200.162 21.236H199.162V22.236H200.162V21.236ZM222.602 21.236H223.602V20.236H222.602V21.236ZM222.602 29.6V30.6H223.602V29.6H222.602ZM200.162 29.6V28.6H199.162V29.6H200.162ZM200.162 41.5H199.162V42.5H200.162V41.5ZM223.982 41.5V50H225.982V41.5H223.982ZM224.982 49H189.826V51H224.982V49ZM190.826 50V2.4H188.826V50H190.826ZM189.826 3.4H224.506V1.4H189.826V3.4ZM223.506 2.4V10.9H225.506V2.4H223.506ZM224.506 9.9H200.162V11.9H224.506V9.9ZM199.162 10.9V21.236H201.162V10.9H199.162ZM200.162 22.236H222.602V20.236H200.162V22.236ZM221.602 21.236V29.6H223.602V21.236H221.602ZM222.602 28.6H200.162V30.6H222.602V28.6ZM199.162 29.6V41.5H201.162V29.6H199.162ZM200.162 42.5H224.982V40.5H200.162V42.5Z" fill="#464646"/>
</svg>
