<svg width="145" height="145" viewBox="0 0 145 145" fill="none" xmlns="http://www.w3.org/2000/svg">
<path d="M137.07 74.7116L137.115 73.5365L127.211 73.154L127.165 74.3291L137.07 74.7116Z" fill="black"/>
<path d="M126.997 78.4791L135.084 80.0214L135.078 80.0489L125.917 84.1449L125.639 85.6027L135.375 87.4598L135.596 86.3046L127.509 84.7622L127.515 84.7347L136.676 80.6387L136.954 79.181L127.218 77.3239L126.997 78.4791Z" fill="black"/>
<path d="M133 95.6313C133.717 93.8225 133.19 92.0769 131.589 91.4419C130.379 90.9617 129.405 91.253 128.234 92.6107C127.086 93.9476 126.55 94.8798 125.314 94.3893C124.351 94.0073 124.101 92.7783 124.508 91.7502C124.834 90.9304 125.492 90.3332 126.316 90.1931L125.92 88.9516C124.915 89.1702 124.02 90.0202 123.519 91.2825C122.776 93.1563 123.275 94.9358 124.927 95.5915C126.242 96.113 127.265 95.8111 128.726 93.9508C129.695 92.7236 130.318 92.2929 131.216 92.6492C132.166 93.0261 132.444 94.0704 131.985 95.2286C131.721 95.8923 131.203 96.4396 130.473 96.5717L130.897 97.7794C131.965 97.4046 132.592 96.6593 133 95.6313Z" fill="black"/>
<path d="M129.172 103.257L129.736 102.226L121.04 97.4701L120.475 98.5019L129.172 103.257Z" fill="black"/>
<path d="M125.008 109.91L127.236 106.961L119.328 100.985L117.083 103.956C115.513 106.034 115.511 108.963 118.057 110.887C120.548 112.769 123.37 112.077 125.008 109.91ZM118.14 104.369L119.49 102.582L125.656 107.241L124.305 109.028C122.82 110.994 120.816 111.393 118.817 109.882C116.806 108.362 116.646 106.346 118.14 104.369Z" fill="black"/>
<path d="M111.597 110.696L106.739 114.987L107.462 115.806L111.439 112.293L113.774 114.937L110.239 118.06L110.962 118.879L114.498 115.755L116.555 118.084L112.768 121.43L113.491 122.249L118.16 118.124L111.597 110.696Z" fill="black"/>
<path d="M103.973 128.72L104.997 128.141L100.113 119.516L99.0899 120.095L103.973 128.72Z" fill="black"/>
<path d="M95.4742 122.111L98.3951 129.807L98.3689 129.817L90.0815 124.157L88.6941 124.684L92.211 133.951L93.3105 133.534L90.3897 125.837L90.4158 125.827L98.7032 131.487L100.091 130.96L96.5737 121.693L95.4742 122.111Z" fill="black"/>
<path d="M83.9229 136.205C85.8398 135.869 87.0511 134.506 86.7544 132.81C86.53 131.528 85.7719 130.85 84.002 130.563C82.262 130.284 81.1873 130.316 80.9582 129.006C80.7797 127.985 81.6958 127.129 82.7852 126.938C83.654 126.786 84.5076 127.035 85.0582 127.663L85.9088 126.676C85.1962 125.934 84.0037 125.616 82.666 125.85C80.6802 126.198 79.4251 127.554 79.7315 129.306C79.9751 130.699 80.768 131.413 83.1179 131.684C84.6707 131.867 85.3636 132.172 85.5301 133.124C85.7062 134.13 84.9621 134.914 83.7348 135.129C83.0315 135.252 82.2937 135.097 81.799 134.544L80.9922 135.538C81.8702 136.251 82.8335 136.395 83.9229 136.205Z" fill="black"/>
<path d="M75.5194 136.916L76.6937 136.853L76.1585 126.955L74.9842 127.019L75.5194 136.916Z" fill="black"/>
<path d="M67.3253 136.835L71.0027 137.205L71.9947 127.343L68.2894 126.97C65.6985 126.709 63.1957 128.23 62.8762 131.406C62.5638 134.513 64.6229 136.563 67.3253 136.835ZM68.4865 128.087L70.7153 128.311L69.9419 136.001L67.7131 135.776C65.2615 135.53 63.8791 134.026 64.1299 131.533C64.3821 129.025 66.021 127.839 68.4865 128.087Z" fill="black"/>
<path d="M59.7318 125.813L53.5441 123.882L53.2188 124.924L58.2839 126.505L57.2329 129.873L52.7291 128.467L52.4038 129.51L56.9076 130.915L55.9817 133.882L51.1572 132.376L50.8319 133.419L56.779 135.275L59.7318 125.813Z" fill="black"/>
<path d="M40.3829 128.649L41.4084 129.224L46.2599 120.581L45.2344 120.005L40.3829 128.649Z" fill="black"/>
<path d="M41.6496 117.967L36.5911 124.462L36.569 124.445L37.099 114.423L35.9282 113.511L29.8375 121.331L30.7653 122.054L35.8237 115.559L35.8458 115.576L35.3158 125.598L36.4866 126.51L42.5773 118.69L41.6496 117.967Z" fill="black"/>
<path d="M23.6058 115.443C24.8889 116.906 26.683 117.232 27.9777 116.096C28.9565 115.238 29.1411 114.238 28.4662 112.577C27.7992 110.946 27.2134 110.044 28.2133 109.167C28.9922 108.484 30.2003 108.821 30.9296 109.653C31.5111 110.316 31.7426 111.174 31.492 111.971L32.7776 112.184C33.0412 111.19 32.6921 110.006 31.7967 108.985C30.4674 107.47 28.6561 107.103 27.3194 108.275C26.2563 109.208 26.0586 110.256 27.0489 112.404C27.6998 113.826 27.7994 114.577 27.0732 115.214C26.3048 115.887 25.2483 115.659 24.4267 114.723C23.9559 114.186 23.7049 113.475 23.9201 112.765L22.6516 112.592C22.4988 113.713 22.8765 114.611 23.6058 115.443Z" fill="black"/>
<path d="M18.6049 108.632L19.2686 109.602L27.4513 104.009L26.7876 103.038L18.6049 108.632Z" fill="black"/>
<path d="M14.5761 101.924L16.1913 105.248L25.1068 100.917L23.4793 97.5671C22.3414 95.2249 19.733 93.8929 16.8619 95.2878C14.0538 96.6522 13.3892 99.481 14.5761 101.924ZM22.6317 98.3214L23.6106 100.336L16.6596 103.713L15.6807 101.699C14.6039 99.4823 15.1585 97.5163 17.4126 96.4211C19.6792 95.3199 21.5488 96.0925 22.6317 98.3214Z" fill="black"/>
<path d="M19.971 89.654L18.3708 83.3726L17.3126 83.6422L18.6225 88.784L15.2037 89.6549L14.0389 85.083L12.9807 85.3525L14.1455 89.9245L11.1337 90.6918L9.88597 85.7942L8.82777 86.0638L10.3658 92.101L19.971 89.654Z" fill="black"/>
<path d="M7.40888 74.6106L7.45425 75.7857L17.3589 75.4033L17.3135 74.2282L7.40888 74.6106Z" fill="black"/>
<path d="M17.1625 69.9873L8.98189 69.069L8.98502 69.0412L17.806 64.2553L17.9715 62.7806L8.12136 61.6749L7.99018 62.8435L16.1708 63.7618L16.1677 63.7897L7.34674 68.5755L7.18119 70.0503L17.0313 71.156L17.1625 69.9873Z" fill="black"/>
<path d="M9.86582 53.3071C9.2861 55.1647 9.94321 56.8657 11.587 57.3787C12.8299 57.7666 13.7794 57.4029 14.8453 55.961C15.8895 54.5416 16.3535 53.5718 17.6231 53.968C18.6121 54.2766 18.9542 55.4833 18.6247 56.5391C18.3619 57.381 17.75 58.026 16.9391 58.2276L17.4273 59.4359C18.4136 59.1424 19.2417 58.2276 19.6462 56.9312C20.2468 55.0068 19.6156 53.2698 17.9183 52.7402C16.5685 52.319 15.5706 52.6968 14.2535 54.6617C13.3796 55.9582 12.791 56.4345 11.8688 56.1467C10.8932 55.8423 10.5371 54.8218 10.9082 53.6324C11.1209 52.9508 11.5968 52.366 12.3149 52.1795L11.8008 51.0071C10.7646 51.461 10.1953 52.2513 9.86582 53.3071Z" fill="black"/>
<path d="M13.158 45.2783L12.6717 46.3491L21.6968 50.4473L22.1831 49.3765L13.158 45.2783Z" fill="black"/>
<path d="M16.7303 38.4676L14.7234 41.5713L23.0469 46.9534L25.069 43.8262C26.483 41.6396 26.2712 38.7184 23.5907 36.9852C20.9691 35.29 18.2051 36.1869 16.7303 38.4676ZM23.9848 43.4919L22.7685 45.3729L16.279 41.1767L17.4953 39.2957C18.8332 37.2266 20.8022 36.6825 22.9066 38.0433C25.0227 39.4116 25.3303 41.4111 23.9848 43.4919Z" fill="black"/>
<path d="M30.06 36.632L34.5932 31.9989L33.8127 31.2352L30.1019 35.0277L27.5802 32.5604L30.8797 29.1881L30.0992 28.4244L26.7996 31.7967L24.5781 29.6231L28.1127 26.0107L27.3322 25.247L22.9752 29.7L30.06 36.632Z" fill="black"/>
<path d="M36.1897 18.1698L35.2116 18.8227L40.7152 27.0664L41.6933 26.4134L36.1897 18.1698Z" fill="black"/>
<path d="M45.2092 24.0628L41.7222 16.6058L41.7476 16.594L50.4342 21.6195L51.7785 20.9909L47.5798 12.0121L46.5145 12.5103L50.0016 19.9672L49.9762 19.9791L41.2896 14.9535L39.9453 15.5822L44.144 24.561L45.2092 24.0628Z" fill="black"/>
<path d="M55.7138 9.10004C53.8262 9.57328 52.7169 11.0205 53.1356 12.6908C53.4523 13.9537 54.2574 14.5746 56.0436 14.733C57.7991 14.8846 58.8686 14.7752 59.1921 16.0653C59.444 17.0702 58.5924 17.9909 57.5196 18.2599C56.6641 18.4744 55.7947 18.2882 55.2001 17.7012L54.4232 18.7475C55.1877 19.4363 56.4 19.6664 57.7172 19.3361C59.6727 18.8459 60.8262 17.402 60.3938 15.6774C60.05 14.3058 59.2074 13.6511 56.8441 13.5508C55.2821 13.4805 54.5689 13.2263 54.334 12.2893C54.0854 11.298 54.7708 10.4623 55.9794 10.1593C56.6719 9.98562 57.419 10.087 57.9524 10.6027L58.6852 9.55304C57.7578 8.90512 56.7866 8.83107 55.7138 9.10004Z" fill="black"/>
<path d="M63.7978 7.78326L62.6313 7.9324L63.8883 17.7644L65.0548 17.6152L63.7978 7.78326Z" fill="black"/>
<path d="M72.2081 7.21363L68.5134 7.11378L68.2456 17.0222L71.9683 17.1228C74.5713 17.1931 76.9561 15.4929 77.0424 12.3021C77.1267 9.18122 74.9231 7.287 72.2081 7.21363ZM71.6899 16.0228L69.4507 15.9623L69.6595 8.23715L71.8987 8.29766C74.3618 8.36423 75.8505 9.76296 75.7828 12.268C75.7147 14.7871 74.167 16.0898 71.6899 16.0228Z" fill="black"/>
<path d="M80.6034 17.6229L86.9196 19.0793L87.165 18.0153L81.9947 16.823L82.7874 13.3853L87.3847 14.4454L87.6301 13.3813L83.0327 12.3212L83.7311 9.29266L88.6559 10.4283L88.9012 9.36418L82.8305 7.96434L80.6034 17.6229Z" fill="black"/>
<path d="M99.6439 13.294L98.5786 12.7958L94.3799 21.7746L95.4452 22.2728L99.6439 13.294Z" fill="black"/>
<path d="M99.2879 24.0758L103.859 17.2294L103.882 17.2449L104.085 27.2785L105.319 28.1024L110.823 19.8588L109.845 19.2058L105.274 26.0522L105.251 26.0367L105.048 16.0031L103.813 15.1792L98.3098 23.4228L99.2879 24.0758Z" fill="black"/>
<path d="M117.521 25.2971C116.135 23.9311 114.322 23.7364 113.113 24.9629C112.199 25.8902 112.088 26.9008 112.882 28.5087C113.665 30.0869 114.315 30.9435 113.381 31.8907C112.654 32.6286 111.425 32.3802 110.637 31.6038C110.009 30.9847 109.716 30.1453 109.908 29.3322L108.61 29.2129C108.419 30.224 108.854 31.3792 109.821 32.3324C111.257 33.7475 113.09 33.9817 114.338 32.7154C115.33 31.7083 115.451 30.6481 114.308 28.5775C113.555 27.2069 113.401 26.4655 114.08 25.7775C114.797 25.0496 115.867 25.2003 116.755 26.0749C117.263 26.5761 117.565 27.2669 117.402 27.9907L118.68 28.0705C118.751 26.9415 118.309 26.0735 117.521 25.2971Z" fill="black"/>
<path d="M122.813 31.4722L122.077 30.555L114.347 36.7591L115.083 37.6763L122.813 31.4722Z" fill="black"/>
<path d="M127.458 37.9865L125.601 34.7905L117.03 39.769L118.901 42.9892C120.208 45.2409 122.908 46.3766 125.668 44.7734C128.368 43.2053 128.822 40.3351 127.458 37.9865ZM119.69 42.1744L118.565 40.2374L125.248 36.3559L126.373 38.2929C127.61 40.4235 127.202 42.4251 125.035 43.6838C122.856 44.9495 120.935 44.3172 119.69 42.1744Z" fill="black"/>
<path d="M123.021 50.6307L125.092 56.7731L126.127 56.4243L124.432 51.3963L127.775 50.2693L129.282 54.7402L130.317 54.3913L128.81 49.9205L131.755 48.9277L133.369 53.717L134.404 53.3681L132.414 47.4645L123.021 50.6307Z" fill="black"/>
<path d="M136.718 64.8504L136.587 63.6817L126.736 64.7875L126.868 65.9561L136.718 64.8504Z" fill="black"/>
</svg>
