<svg width="93" height="76" viewBox="0 0 93 76" fill="none" xmlns="http://www.w3.org/2000/svg">
<path d="M37.4093 39.5108L37.4093 39.0108L36.9093 39.0108L24.8652 39.0108C23.277 39.0108 22.3608 38.6427 21.9111 38.0767L21.8765 38.0332L21.8333 37.9983C21.2505 37.5288 20.9044 36.7294 20.9044 35.4677C20.9044 31.7299 22.3949 28.4925 25.42 25.7341C28.4548 23.1165 32.4473 21.4262 37.4286 20.6884L37.8554 20.6252L37.8554 20.1938L37.8554 2L37.8554 1.425L37.286 1.50485C25.4646 3.16249 16.353 7.23988 10.0087 13.7811C3.63924 20.3483 0.499996 30.2301 0.499995 43.3292L0.499992 75L0.499992 75.5L0.999992 75.5L36.9093 75.5L37.4093 75.5L37.4093 75L37.4093 39.5108ZM92.0539 39.5108L92.0539 39.0108L91.5539 39.0108L79.5098 39.0108C77.9216 39.0108 77.0054 38.6427 76.5557 38.0767L76.5212 38.0332L76.4779 37.9983C75.8951 37.5288 75.549 36.7294 75.549 35.4677C75.549 31.7299 77.0395 28.4925 80.0646 25.7341C83.0994 23.1165 87.0919 21.4262 92.0733 20.6885L92.5 20.6253L92.5 20.1938L92.5 2.00001L92.5 1.425L91.9306 1.50485C80.1092 3.1625 70.9976 7.23988 64.6533 13.7811C58.2839 20.3483 55.1446 30.2301 55.1446 43.3292L55.1446 75L55.1446 75.5L55.6446 75.5L91.5539 75.5L92.0539 75.5L92.0539 75L92.0539 39.5108Z" fill="black" stroke="black"/>
</svg>
